<svg preserveAspectRatio="xMidYMid meet" data-bbox="36 36 128 128" viewBox="36 36 128 128" height="200" width="200" xmlns="http://www.w3.org/2000/svg" data-type="color" role="presentation" aria-hidden="true" aria-labelledby="svgcid-7nwse3sc3in"><defs><style>#comp-kw2iqqbm svg [data-color="1"] {fill: #FF3818;}</style></defs><title id="svgcid-7nwse3sc3in"></title>
    <g>
        <path d="M162.828 157.172l-26.254-26.254c8.766-10.073 14.093-23.214 14.093-37.585C150.667 61.72 124.947 36 93.333 36 61.72 36 36 61.72 36 93.333c0 31.614 25.72 57.334 57.333 57.334 14.37 0 27.512-5.326 37.585-14.093l26.254 26.254c.78.781 1.805 1.172 2.828 1.172s2.048-.391 2.828-1.172a3.997 3.997 0 0 0 0-5.656zM44 93.333C44 66.131 66.131 44 93.333 44c27.203 0 49.334 22.131 49.334 49.333 0 13.482-5.441 25.713-14.235 34.626-.086.073-.179.132-.26.212-.081.081-.14.174-.212.259-8.914 8.795-21.145 14.236-34.627 14.236C66.131 142.667 44 120.536 44 93.333zm73.333 0a4 4 0 0 1-4 4h-16v16a4 4 0 0 1-8 0v-16h-16a4 4 0 0 1 0-8h16v-16a4 4 0 0 1 8 0v16h16a4 4 0 0 1 4 4z" fill="#FF3818" data-color="1"></path>
    </g>
</svg>