<svg preserveAspectRatio="xMidYMid meet" data-bbox="10.2 22 180.709 131.6" viewBox="10.2 22 180.709 131.6" height="200" width="200" fill='#555555' xmlns="http://www.w3.org/2000/svg" data-type="shape" role="presentation" aria-hidden="true" aria-labelledby="svgcid-efdgfi-mkf6o2"><title id="svgcid-efdgfi-mkf6o2"></title>
    <g>
        <path d="M175.6 78.2h-4.9c5.6-4 9.2-10.6 9.2-18 0-12.3-10-22.2-22.2-22.2-12.3 0-22.2 10-22.2 22.2 0 7.4 3.6 14 9.2 18H137c-2.8-6-8.8-10.1-15.8-10.1H114c7-4.4 11.6-12.3 11.6-21.1 0-13.8-11.2-25-25-25s-25 11.2-25 25c0 8.9 4.6 16.7 11.6 21.1h-6.7c-7 0-13 4.2-15.8 10.1h-8.4c5.6-4 9.2-10.6 9.2-18 0-12.3-10-22.2-22.2-22.2C31 38 21.1 48 21.1 60.2c0 7.4 3.6 14 9.2 18h-4.5c-8.6 0-15.6 7-15.6 15.6v56.6c0 1.8 1.5 3.2 3.2 3.2s3.2-1.5 3.2-3.2V93.8c0-5 4.1-9.1 9.1-9.1h37.4v43.9c0 1.8 1.5 3.2 3.2 3.2s3.2-1.5 3.2-3.2V85.5c0-6 4.9-10.9 10.9-10.9H121c6 0 10.9 4.9 10.9 10.9v43.1c0 1.8 1.5 3.2 3.2 3.2s3.2-1.5 3.2-3.2V84.7h37.1c5 0 9.1 4.1 9.1 9.1v56.6c0 1.8 1.5 3.2 3.2 3.2s3.2-1.5 3.2-3.2V93.8c.3-8.6-6.7-15.6-15.3-15.6zM43.3 75.9c-8.7 0-15.8-7.1-15.8-15.8s7.1-15.8 15.8-15.8 15.8 7.1 15.8 15.8S52 75.9 43.3 75.9zm57.3-10.4c-10.2 0-18.5-8.3-18.5-18.5s8.3-18.5 18.5-18.5 18.5 8.3 18.5 18.5-8.2 18.5-18.5 18.5zm57.1 10.4c-8.7 0-15.8-7.1-15.8-15.8s7.1-15.8 15.8-15.8 15.8 7.1 15.8 15.8-7.1 15.8-15.8 15.8z"></path>
    </g>
</svg>