<svg preserveAspectRatio="xMidYMid meet" data-bbox="36 36 128 127.999" viewBox="36 36 128 127.999" height="200" width="200" xmlns="http://www.w3.org/2000/svg" data-type="color" role="presentation" aria-hidden="true" aria-labelledby="svgcid-rx2l00-qkmd0q"><defs><style>#comp-kw2iq4ya svg [data-color="1"] {fill: #FF3818;}</style></defs><title id="svgcid-rx2l00-qkmd0q"></title>
    <g>
        <path d="M162.828 157.171l-26.254-26.254c8.766-10.072 14.093-23.214 14.093-37.584C150.667 61.72 124.947 36 93.333 36 61.72 36 36 61.72 36 93.333s25.72 57.333 57.333 57.333c14.37 0 27.512-5.326 37.584-14.092l26.254 26.254c.78.781 1.805 1.171 2.828 1.171s2.048-.391 2.828-1.171a3.998 3.998 0 0 0 .001-5.657zM44 93.333C44 66.131 66.131 44 93.333 44c27.203 0 49.334 22.131 49.334 49.333 0 13.481-5.441 25.712-14.235 34.626-.086.072-.179.131-.26.212-.081.081-.14.174-.212.259-8.914 8.795-21.145 14.236-34.627 14.236C66.131 142.667 44 120.536 44 93.333z" fill="#FF3818" data-color="1"></path>
    </g>
</svg>