<svg preserveAspectRatio="xMidYMid meet" data-bbox="10 30 180 140" viewBox="10 30 180 140" height="200" width="200" xmlns="http://www.w3.org/2000/svg" data-type="color" role="presentation" aria-hidden="true" aria-labelledby="svgcid-897aghu8d3wt"><defs><style>#comp-kw2ivdkz svg [data-color="1"] {fill: #FF3818;}</style></defs><title id="svgcid-897aghu8d3wt"></title>
    <g>
        <path d="M50.575 169.719h.094c.282.188.659.281 1.036.281.188 0 .377 0 .565-.094l47.73-12.94 47.731 12.94c.188.094.377.094.565.094.377 0 .659-.094 1.036-.281h.094l39.54-24.005c.847-.469 1.224-1.5.941-2.438l-21.841-76.517c-.188-.656-.659-1.125-1.318-1.407s-1.318-.188-1.883.094l-21.747 12.19c-1.036.563-1.412 1.969-.847 3.001s1.883 1.407 3.013.844l19.394-10.784 20.712 72.297-35.21 21.38-8.38-66.578c-.188-1.219-1.318-2.063-2.448-1.875-1.224.188-2.071 1.219-1.883 2.438l8.19 66.765-43.777-12.096v-12.044c0-1.084-.857-2.05-1.945-2.021-1.184.031-1.821.958-1.821 2.156v11.909l-43.683 11.815 8.285-66.671c.188-1.219-.753-2.251-1.977-2.438-1.224-.094-2.354.656-2.448 1.875l-8.379 66.577-35.114-21.38 20.617-72.297 19.394 10.784c1.036.563 2.354.188 3.013-.844.565-1.031.188-2.344-.847-3.001L35.135 65.352c-.565-.281-1.318-.375-1.883-.094-.659.281-1.13.75-1.318 1.407l-21.841 76.517c-.282.938.094 1.969.941 2.438l39.541 24.099z" fill="#FF3818" data-color="1"></path>
        <path d="M98.116 132.117c.377.375.941.563 1.506.563.565 0 1.036-.188 1.506-.563 1.506-1.313 35.869-32.726 35.869-64.983C136.997 46.316 120.616 30 99.716 30S62.341 46.222 62.341 67.04c0 31.788 34.363 63.67 35.775 65.077zm1.506-97.897c18.735 0 32.95 14.066 32.95 32.82 0 26.631-26.266 53.918-32.95 60.388-6.59-6.47-32.95-34.133-32.95-60.388 0-18.661 14.215-32.82 32.95-32.82z" fill="#FF3818" data-color="1"></path>
        <path d="M119.392 67.04c0-10.877-8.85-19.692-19.77-19.692s-19.77 8.814-19.77 19.692 8.85 19.692 19.77 19.692 19.77-8.815 19.77-19.692zm-19.77 15.284c-8.473 0-15.345-6.845-15.345-15.285 0-8.439 6.872-15.285 15.345-15.285s15.345 6.845 15.345 15.285c0 8.44-6.872 15.285-15.345 15.285z" fill="#FF3818" data-color="1"></path>
    </g>
</svg>