<svg preserveAspectRatio="xMidYMid meet" data-bbox="29.892 35 140.138 130.1" viewBox="29.892 35 140.138 130.1" xmlns="http://www.w3.org/2000/svg" data-type="color" role="presentation" aria-hidden="true" aria-labelledby="svgcid--9t9090gcc6kp"><defs><style>#comp-kw2ihc71 svg [data-color="1"] {fill: #FF3818;}</style></defs><title id="svgcid--9t9090gcc6kp"></title>
    <g>
        <path d="M167.4 146.3c-1.9-5.5-5.3-11.1-10.2-14.3-9.5-6.3-20.5-9.7-31.3-13.3-2.6-.9-5.3-1.9-7.6-3.3-2.1-1.2-2.9-3.8-3.4-6.1-.2-1.2-.4-2.5-.4-3.6 7.8-10.7 13-28 13-42.3 0-22.1-12.5-28.4-28-28.4s-28 6.2-28 28.4c0 14.8 5.5 32.7 13.8 43.3-.1.8-.2 1.7-.3 2.5-.5 2.2-1.2 4.8-3.4 6-2.3 1.3-5 2.2-7.6 3.3-10.7 3.6-21.8 6.8-31.3 13.1-4.9 3.3-8.3 9.3-10.2 14.8-1.9 5.7-2.7 12.9-2.6 18.7H170c.2-5.9-.6-13-2.6-18.8z" fill="#FF3818" data-color="1"></path>
    </g>
</svg>