<svg preserveAspectRatio="xMidYMid meet" data-bbox="20.001 19.594 159.999 160.812" xmlns="http://www.w3.org/2000/svg" width="200" height="200" viewBox="20.001 19.594 159.999 160.812" data-type="color" role="presentation" aria-hidden="true" aria-labelledby="svgcid--cxbyoo-yvk7xy"><defs><style>#comp-kw2i4cic svg [data-color="3"] {fill: #FFFFFF;}</style></defs><title id="svgcid--cxbyoo-yvk7xy"></title>
    <g>
        <path d="M106.793 48.368v128.326H23.712V48.368h83.081z" fill="#FFFFFF" data-color="1"></path>
        <path fill="#2E3A48" d="M106.793 180.406h-83.08a3.712 3.712 0 01-3.712-3.712V48.369a3.712 3.712 0 013.712-3.712h83.08a3.712 3.712 0 013.712 3.712v128.325a3.712 3.712 0 01-3.712 3.712zm-79.369-7.424h75.656V52.081H27.424v120.901z" data-color="2"></path>
        <path d="M92.474 61.454v82.533H38.031V61.454h54.443z" fill="#FFFFFF" data-color="1"></path>
        <path fill="#2E3A48" d="M92.474 147.699H38.031a3.712 3.712 0 01-3.712-3.712V61.454a3.712 3.712 0 013.712-3.712h54.444a3.712 3.712 0 013.712 3.712v82.533a3.714 3.714 0 01-3.713 3.712zm-50.731-7.424h47.019V65.166H41.743v75.109z" data-color="2"></path>
        <path fill="#ffffff" d="M141.717 23.306h-32.538c-19.093 0-34.571 15.478-34.571 34.571v54.654l20.083-20.083h47.026c19.093 0 34.571-15.478 34.571-34.571 0-19.093-15.478-34.571-34.571-34.571z" data-color="3"></path>
        <path fill="#2E3A48" d="M74.607 116.243a3.711 3.711 0 01-3.711-3.712V57.877c0-21.109 17.174-38.283 38.283-38.283h32.538c21.109 0 38.283 17.173 38.283 38.283S162.826 96.16 141.717 96.16H96.229l-18.997 18.996a3.708 3.708 0 01-2.625 1.087zm34.572-89.225c-17.016 0-30.859 13.843-30.859 30.858v45.692l13.747-13.746a3.713 3.713 0 012.625-1.088h47.026c17.016 0 30.859-13.844 30.859-30.859s-13.844-30.858-30.859-30.858h-32.539z" data-color="2"></path>
        <path d="M108.162 57.664a4.93 4.93 0 11-9.86 0 4.93 4.93 0 019.86 0z" fill="#2E3A48" data-color="2"></path>
        <path d="M130.378 57.664a4.93 4.93 0 11-9.86 0 4.93 4.93 0 019.86 0z" fill="#2E3A48" data-color="2"></path>
        <path d="M152.593 57.664a4.93 4.93 0 11-9.86 0 4.93 4.93 0 019.86 0z" fill="#2E3A48" data-color="2"></path>
        <path d="M68.252 160.106a2.999 2.999 0 11-5.998 0 2.999 2.999 0 015.998 0z" fill="#FFFFFF" data-color="1"></path>
        <path fill="#2E3A48" d="M65.253 166.817c-3.7 0-6.711-3.011-6.711-6.711s3.011-6.71 6.711-6.71 6.71 3.01 6.71 6.71-3.01 6.711-6.71 6.711zm0-7.424a.714.714 0 00-.714.713c0 .788 1.427.789 1.427 0a.714.714 0 00-.713-.713z" data-color="2"></path>
    </g>
</svg>