<svg preserveAspectRatio="xMidYMid meet" data-bbox="46.2 30 105.1 140" viewBox="46.2 30 105.1 140" xmlns="http://www.w3.org/2000/svg" data-type="color" role="presentation" aria-hidden="true"><defs><style>#comp-kw2hrhgv svg [data-color="1"] {fill: #555555;}</style></defs>
    <g>
        <path d="M98.9 41.8c22.6 0 21.7 21.4 21.7 37.2H134c0-18.4 0-49-35.2-49-34.7 0-34.7 30.6-35 49h14c0-15.8 1.2-37.2 21.1-37.2zm52.3 50.3c0-5.8-4.7-10.5-10.5-10.5H57.1c-6 0-10.9 4.9-10.9 10.8v66.7c0 6 4.9 10.9 10.9 10.9h84.3c5.5 0 9.9-4.4 9.9-9.9v-68zm-46.7 38.6c0 .1-.5.3-.5.4V144c0 3-2.3 5.4-5.2 5.4s-5.2-2.4-5.2-5.4v-12.9c0-.1.4-.2.4-.3-3.8-1.9-6.1-5.9-6.1-10.4-.1-6.4 5.2-11.6 11.7-11.6S111 114 111 120.4c0 4.4-2.8 8.4-6.5 10.3z" fill="#555555" data-color="1"></path>
    </g>
</svg>