<?xml version="1.0" encoding="utf-8"?>
<!-- Svg Vector Icons : http://www.onlinewebfonts.com/icon -->
<!DOCTYPE svg PUBLIC "-//W3C//DTD SVG 1.1//EN" "http://www.w3.org/Graphics/SVG/1.1/DTD/svg11.dtd">
<svg version="1.1" xmlns="http://www.w3.org/2000/svg" fill="#FF3818" xmlns:xlink="http://www.w3.org/1999/xlink" x="0px" y="0px" viewBox="0 0 1000 1000" enable-background="new 0 0 1000 1000" xml:space="preserve">
<metadata> Svg Vector Icons : http://www.onlinewebfonts.com/icon </metadata>
<g><g transform="translate(0.000000,511.000000) scale(0.100000,-0.100000)"><path d="M4669.5,4996.4C3612,4865.4,2697.6,4133.1,2343.7,3130.8c-118.7-341.6-153.4-554.3-153.4-975.7c0-632.1,116.6-1200.7,378.4-1859.4c403-1010.5,1139.3-2076.2,2047.6-2959.9c296.6-290.5,347.7-319.1,476.6-265.9c85.9,36.8,580.9,527.7,867.3,861.2C7177.3-649.3,7823.7,817.3,7823.7,2165.3c0,437.7-65.5,771.2-223,1137.3c-370.2,857.1-1141.4,1481-2055.7,1656.9C5301.6,5006.6,4892.5,5025,4669.5,4996.4z M5320,3484.7c411.1-104.3,732.3-372.3,906.2-760.9c81.8-182.1,110.4-325.2,110.4-538c0-372.3-120.7-658.7-394.8-930.7c-276.2-276.1-558.4-394.8-941-394.8c-237.3,0-403,40.9-621.8,155.5c-190.2,98.2-415.3,308.9-519.6,488.9c-167.7,286.4-229.1,650.5-159.5,965.5c85.9,384.6,362.1,738.4,707.7,910.3C4706.3,3527.7,5013.2,3562.4,5320,3484.7z"/><path d="M2290.5-3249.2c-116.6-63.4-151.4-229.1-69.5-331.4c51.1-65.4,79.8-73.6,887.8-257.7c677.1-155.5,711.8-163.7,701.6-173.9c-4.1-4.1-333.4-81.8-732.3-171.8c-398.9-92.1-750.7-175.9-781.4-188.2c-124.8-51.1-159.5-231.2-67.5-341.6c28.6-34.8,77.7-67.5,110.5-75.7c36.8-8.2,460.2,81.8,1258,265.9c662.7,151.4,1221.2,276.2,1243.7,276.2c22.5,0,585-124.8,1249.8-278.2c740.5-169.8,1227.3-272.1,1258-263.9c28.6,6.1,75.7,38.9,108.4,71.6c81.8,79.8,81.8,198.4,4.1,286.4c-59.3,65.5-122.7,81.8-1386.9,368.2c-157.5,36.8-194.3,51.1-163.6,63.4c22.5,10.2,362.1,92.1,754.8,182.1c392.7,90,736.4,178,763,196.4c57.3,34.8,87.9,106.4,87.9,196.4c0,81.8-116.6,200.5-196.4,200.5c-32.7,0-603.4-124.8-1268.2-278.2L4845.4-3779l-1206.9,276.1c-662.8,153.4-1229.4,278.2-1256,278.2C2354-3224.6,2313-3236.9,2290.5-3249.2z"/></g></g>
</svg>