<?xml version="1.0" encoding="utf-8"?>
<!-- Svg Vector Icons : http://www.onlinewebfonts.com/icon -->
<!DOCTYPE svg PUBLIC "-//W3C//DTD SVG 1.1//EN" "http://www.w3.org/Graphics/SVG/1.1/DTD/svg11.dtd">
<svg version="1.1" xmlns="http://www.w3.org/2000/svg" xmlns:xlink="http://www.w3.org/1999/xlink" x="0px" y="0px" viewBox="0 0 1000 1000" enable-background="new 0 0 1000 1000" xml:space="preserve" fill="#FF3818">
<metadata> Svg Vector Icons : http://www.onlinewebfonts.com/icon </metadata>
<g><path d="M990,362.1V198.7c0-30.1-24.4-50.8-54.4-50.8H64.4c-30.1,0-54.4,20.7-54.4,50.8v163.3c0,15,12.2,27.2,27.2,27.2c0,1.3-0.6,2.4-0.7,3.6c47.3,11.9,82.4,54.3,82.4,105.3c0,50.9-35.1,93.4-82.4,105.3c0.2,1.2,0.7,2.3,0.7,3.6c-15,0-27.2,12.2-27.2,27.2v163.3c0,30.1,24.4,50.8,54.4,50.8h871.1v3.6c30.1,0,54.4-24.4,54.4-54.5V634.3c0-15-12.2-27.2-27.2-27.2c0-1.3,0.6-2.4,0.7-3.6c-47.3-11.9-82.4-54.3-82.4-105.3s35.1-93.4,82.4-105.3c-0.2-1.2-0.7-2.3-0.7-3.6C977.8,389.3,990,377.1,990,362.1z M946.4,344.3c-63.4,22.4-119.8,82.8-119.8,153.9c0,71.1,56.4,131.4,119.8,153.8v118.4c0,15-23.1,32.7-38.1,32.7H491.8l0-0.3L91.6,803c-15,0-38.1-17.6-38.1-32.7V652c63.4-22.4,119.8-82.8,119.8-153.8c0-71.1-56.4-131.4-119.8-153.9V225.9c0-15,23.1-32.7,38.1-32.7l434.4,0.3l-21.9,395.6l23-396h381.1c15,0,38.1,17.6,38.1,32.7V344.3z M504.2,589.2l-12.4,213.5h0.6L504.2,589.2z"/><path d="M513.6,211.3h-27.2c-7.5,0-19.1-1.4-19.1,6.1v58.5c0.7,2.7,11.5,3.8,19.1,3.8h27.2c7.5,0,19.1-1.8,19.1-3.8v-58.5C532.7,209.8,521.1,211.3,513.6,211.3z"/><path d="M513.6,342.1h-27.2c-7.5,0-19.1-1.4-19.1,6.1v58.5c0.7,2.7,11.5,3.8,19.1,3.8h27.2c7.5,0,19.1-1.8,19.1-3.8v-58.5C532.7,340.6,521.1,342.1,513.6,342.1z"/><path d="M513.6,472.9h-27.2c-7.5,0-19.1-1.4-19.1,6.1v58.5c0.7,2.7,11.5,3.8,19.1,3.8h27.2c7.5,0,19.1-1.8,19.1-3.8V479C532.7,471.5,521.1,472.9,513.6,472.9z"/><path d="M513.6,603.7h-27.2c-7.5,0-19.1-1.4-19.1,6.1v58.5c0.7,2.7,11.5,3.8,19.1,3.8h27.2c7.5,0,19.1-1.8,19.1-3.8v-58.5C532.7,602.3,521.1,603.7,513.6,603.7z"/><path d="M513.6,734.5h-27.2c-7.5,0-19.1-1.4-19.1,6.1v58.5c0.7,2.7,11.5,3.8,19.1,3.8h27.2c7.5,0,19.1-1.8,19.1-3.8v-58.5C532.7,733.1,521.1,734.5,513.6,734.5z"/></g>
</svg>