<svg preserveAspectRatio="xMidYMid meet" data-bbox="16.5 15.959 167.001 167.941" viewBox="16.5 15.959 167.001 167.941" height="200" width="200" xmlns="http://www.w3.org/2000/svg" data-type="color" role="presentation" aria-hidden="true" aria-labelledby="svgcid--pykbbmjba4ak"><defs><style>#comp-kw2ihc81 svg [data-color="1"] {fill: #FF3818;}</style></defs><title id="svgcid--pykbbmjba4ak"></title>
    <g>
        <path d="M180.3 19.2c-3.7-3.7-9.9-4.9-14.7 0l-11.1 11.2c-.4-.3-.9-.4-1.5-.4H20c-1.9 0-3.5 1.6-3.5 3.5v146.9c0 1.9 1.5 3.5 3.5 3.5h132.1c1.9 0 3.5-1.6 3.5-3.5V61.9c0-.9-.3-1.6-.9-2.2L180.3 34c4.8-4.9 3.7-11.1 0-14.8zm-31.6 157.7H23.5V37h124.3L99.1 86c-.3.3-.5.6-.7.9l-9.8 19.8c-.7 1.4-.4 3 .7 4 .7.7 1.5 1 2.5 1 .5 0 1-.1 1.5-.3l19.7-9.9c.3-.2.6-.4.9-.7l34.8-35v111.1zm26.7-147.8l-66 66.4-9.8 4.9 4.9-9.9 66-66.4c2.3-2.3 4.5-.3 4.9 0 .4.5 2.3 2.6 0 5z" fill="#FF3818" data-color="1"></path>
        <path d="M126.8 150.7H47.7c-1.9 0-3.5 1.6-3.5 3.5s1.5 3.5 3.5 3.5h79.1c1.9 0 3.5-1.6 3.5-3.5 0-2-1.5-3.5-3.5-3.5z" fill="#FF3818" data-color="1"></path>
        <path d="M44.2 128.8c0 1.9 1.5 3.5 3.5 3.5h79.1c1.9 0 3.5-1.6 3.5-3.5s-1.5-3.5-3.5-3.5H47.7c-1.9 0-3.5 1.6-3.5 3.5z" fill="#FF3818" data-color="1"></path>
    </g>
</svg>