<?xml version="1.0" encoding="UTF-8"?>
<svg width="700pt" height="700pt" version="1.1" viewBox="0 0 700 700" xmlns="http://www.w3.org/2000/svg">
 <path d="m326.67 210h93.332c6.1875 0 12.125-2.457 16.5-6.8359 4.375-4.375 6.832-10.309 6.832-16.496 0-6.1914-2.457-12.125-6.832-16.5s-10.312-6.8359-16.5-6.8359h-46.668v-23.332c0-6.1875-2.457-12.125-6.832-16.5s-10.312-6.832-16.5-6.832-12.125 2.457-16.5 6.832-6.832 10.312-6.832 16.5v23.332c-18.566 0-36.371 7.375-49.5 20.504-13.125 13.129-20.5 30.934-20.5 49.496 0 18.566 7.375 36.371 20.5 49.5 13.129 13.125 30.934 20.5 49.5 20.5h46.664c6.1875 0 12.125 2.4609 16.5 6.8359s6.8359 10.312 6.8359 16.5-2.4609 12.121-6.8359 16.496-10.312 6.8359-16.5 6.8359h-93.332c-6.1875 0-12.125 2.4609-16.5 6.8359s-6.832 10.309-6.832 16.496 2.457 12.125 6.832 16.5 10.312 6.8359 16.5 6.8359h46.668v23.332c0 6.1875 2.457 12.125 6.832 16.5s10.312 6.832 16.5 6.832 12.125-2.457 16.5-6.832 6.832-10.312 6.832-16.5v-23.332c18.566 0 36.371-7.3789 49.5-20.504 13.125-13.129 20.5-30.934 20.5-49.496 0-18.566-7.375-36.371-20.5-49.5-13.129-13.125-30.934-20.5-49.5-20.5h-46.664c-6.1875 0-12.125-2.4609-16.5-6.8359s-6.8359-10.312-6.8359-16.5 2.4609-12.121 6.8359-16.496c4.375-4.3789 10.312-6.8359 16.5-6.8359zm186.66-163.33h-326.66c-18.566 0-36.371 7.375-49.5 20.5-13.125 13.129-20.5 30.934-20.5 49.5v326.66c0 18.566 7.375 36.371 20.5 49.5 13.129 13.125 30.934 20.5 49.5 20.5h326.66c18.566 0 36.371-7.375 49.5-20.5 13.125-13.129 20.5-30.934 20.5-49.5v-326.66c0-18.566-7.375-36.371-20.5-49.5-13.129-13.125-30.934-20.5-49.5-20.5zm23.336 396.66c0 6.1875-2.4609 12.125-6.8359 16.5s-10.312 6.8359-16.5 6.8359h-326.66c-6.1914 0-12.125-2.4609-16.5-6.8359s-6.8359-10.312-6.8359-16.5v-326.66c0-6.1914 2.4609-12.125 6.8359-16.5s10.309-6.8359 16.5-6.8359h326.66c6.1875 0 12.125 2.4609 16.5 6.8359s6.8359 10.309 6.8359 16.5z" fill="#ff3818"/>
</svg>
